<svg width="53" height="15" viewBox="0 0 53 15" fill="none" xmlns="http://www.w3.org/2000/svg">
<path d="M0.758523 12V3.27273H6.6392V4.79403H2.60369V6.87358H6.33665V8.39489H2.60369V10.4787H6.65625V12H0.758523ZM3.08523 2.42898L1.78551 0.490057H3.46023L4.3679 2.42898H3.08523ZM9.71697 10.1165L9.72124 7.93892H9.98544L12.082 5.45455H14.1658L11.3491 8.74432H10.9187L9.71697 10.1165ZM8.07209 12V3.27273H9.88743V12H8.07209ZM12.163 12L10.2369 9.14915L11.4471 7.86648L14.2894 12H12.163ZM17.7443 12.1278C17.0824 12.1278 16.5099 11.9872 16.027 11.706C15.5469 11.4219 15.1761 11.027 14.9148 10.5213C14.6534 10.0128 14.5227 9.4233 14.5227 8.75284C14.5227 8.0767 14.6534 7.4858 14.9148 6.98011C15.1761 6.47159 15.5469 6.0767 16.027 5.79545C16.5099 5.51136 17.0824 5.36932 17.7443 5.36932C18.4062 5.36932 18.9773 5.51136 19.4574 5.79545C19.9403 6.0767 20.3125 6.47159 20.5739 6.98011C20.8352 7.4858 20.9659 8.0767 20.9659 8.75284C20.9659 9.4233 20.8352 10.0128 20.5739 10.5213C20.3125 11.027 19.9403 11.4219 19.4574 11.706C18.9773 11.9872 18.4062 12.1278 17.7443 12.1278ZM17.7528 10.7216C18.054 10.7216 18.3054 10.6364 18.5071 10.4659C18.7088 10.2926 18.8608 10.0568 18.9631 9.75852C19.0682 9.46023 19.1207 9.12074 19.1207 8.74006C19.1207 8.35938 19.0682 8.01989 18.9631 7.72159C18.8608 7.4233 18.7088 7.1875 18.5071 7.0142C18.3054 6.84091 18.054 6.75426 17.7528 6.75426C17.4489 6.75426 17.1932 6.84091 16.9858 7.0142C16.7813 7.1875 16.6264 7.4233 16.5213 7.72159C16.419 8.01989 16.3679 8.35938 16.3679 8.74006C16.3679 9.12074 16.419 9.46023 16.5213 9.75852C16.6264 10.0568 16.7813 10.2926 16.9858 10.4659C17.1932 10.6364 17.4489 10.7216 17.7528 10.7216ZM17.0923 4.6108L17.9957 2.67188H19.6747L18.375 4.6108H17.0923ZM27.5923 7.32102L25.9304 7.4233C25.902 7.28125 25.8409 7.15341 25.7472 7.03977C25.6534 6.9233 25.5298 6.83097 25.3764 6.76278C25.2259 6.69176 25.0455 6.65625 24.8352 6.65625C24.554 6.65625 24.3168 6.71591 24.1236 6.83523C23.9304 6.9517 23.8338 7.10795 23.8338 7.30398C23.8338 7.46023 23.8963 7.59233 24.0213 7.70028C24.1463 7.80824 24.3608 7.89489 24.6648 7.96023L25.8494 8.19886C26.4858 8.32955 26.9602 8.53977 27.2727 8.82955C27.5852 9.11932 27.7415 9.5 27.7415 9.97159C27.7415 10.4006 27.6151 10.777 27.3622 11.1009C27.1122 11.4247 26.7685 11.6776 26.331 11.8594C25.8963 12.0384 25.3949 12.1278 24.8267 12.1278C23.9602 12.1278 23.2699 11.9474 22.7557 11.5866C22.2443 11.223 21.9446 10.7287 21.8565 10.1037L23.642 10.0099C23.696 10.2741 23.8267 10.4759 24.0341 10.6151C24.2415 10.7514 24.5071 10.8196 24.831 10.8196C25.1491 10.8196 25.4048 10.7585 25.598 10.6364C25.794 10.5114 25.8935 10.3509 25.8963 10.1548C25.8935 9.99006 25.8239 9.85511 25.6875 9.75C25.5511 9.64205 25.3409 9.55966 25.0568 9.50284L23.9233 9.27699C23.2841 9.14915 22.8082 8.92756 22.4957 8.61222C22.1861 8.29687 22.0312 7.89489 22.0312 7.40625C22.0312 6.9858 22.1449 6.62358 22.3722 6.3196C22.6023 6.01562 22.9247 5.78125 23.3395 5.61648C23.7571 5.4517 24.2457 5.36932 24.8054 5.36932C25.6321 5.36932 26.2827 5.54403 26.7571 5.89347C27.2344 6.2429 27.5128 6.71875 27.5923 7.32102ZM30.1758 12L28.3945 5.45455H30.2312L31.2454 9.85227H31.305L32.3619 5.45455H34.1644L35.2383 9.8267H35.2937L36.2908 5.45455H38.1232L36.3462 12H34.4244L33.2994 7.88352H33.2184L32.0934 12H30.1758ZM40.9581 12.1236C40.5405 12.1236 40.1683 12.0511 39.8416 11.9062C39.5149 11.7585 39.2564 11.5412 39.0661 11.2543C38.8786 10.9645 38.7848 10.6037 38.7848 10.1719C38.7848 9.80824 38.8516 9.50284 38.9851 9.25568C39.1186 9.00852 39.3004 8.80966 39.5305 8.65909C39.7607 8.50852 40.022 8.39489 40.3146 8.31818C40.6101 8.24148 40.9197 8.1875 41.2436 8.15625C41.6243 8.11648 41.9311 8.07955 42.1641 8.04545C42.397 8.00852 42.5661 7.95455 42.6712 7.88352C42.7763 7.8125 42.8288 7.70739 42.8288 7.56818V7.54261C42.8288 7.27273 42.7436 7.06392 42.5732 6.91619C42.4055 6.76847 42.1669 6.6946 41.8572 6.6946C41.5305 6.6946 41.2706 6.76705 41.0774 6.91193C40.8842 7.05398 40.7564 7.23295 40.6939 7.44886L39.0149 7.3125C39.1001 6.91477 39.2678 6.57102 39.5178 6.28125C39.7678 5.98864 40.0902 5.7642 40.4851 5.60795C40.8828 5.44886 41.343 5.36932 41.8658 5.36932C42.2294 5.36932 42.5774 5.41193 42.9098 5.49716C43.245 5.58239 43.5419 5.71449 43.8004 5.89347C44.0618 6.07244 44.2678 6.30256 44.4183 6.58381C44.5689 6.86222 44.6442 7.19602 44.6442 7.58523V12H42.9226V11.0923H42.8714C42.7663 11.2969 42.6257 11.4773 42.4496 11.6335C42.2734 11.7869 42.0618 11.9077 41.8146 11.9957C41.5675 12.081 41.282 12.1236 40.9581 12.1236ZM41.478 10.8707C41.745 10.8707 41.9808 10.8182 42.1854 10.7131C42.3899 10.6051 42.5504 10.4602 42.6669 10.2784C42.7834 10.0966 42.8416 9.89062 42.8416 9.66051V8.96591C42.7848 9.00284 42.7067 9.03693 42.6072 9.06818C42.5107 9.09659 42.4013 9.12358 42.2791 9.14915C42.157 9.17187 42.0348 9.19318 41.9126 9.21307C41.7905 9.23011 41.6797 9.24574 41.5803 9.25994C41.3672 9.29119 41.1811 9.34091 41.022 9.40909C40.8629 9.47727 40.7393 9.5696 40.6513 9.68608C40.5632 9.79972 40.5192 9.94176 40.5192 10.1122C40.5192 10.3594 40.6087 10.5483 40.7876 10.679C40.9695 10.8068 41.1996 10.8707 41.478 10.8707ZM46.0526 14.4545V5.45455H47.8423V6.55398H47.9233C48.0028 6.37784 48.1179 6.19886 48.2685 6.01705C48.4219 5.83239 48.6207 5.67898 48.8651 5.55682C49.1122 5.43182 49.419 5.36932 49.7855 5.36932C50.2628 5.36932 50.7031 5.49432 51.1065 5.74432C51.5099 5.99148 51.8324 6.36506 52.0739 6.86506C52.3153 7.36222 52.4361 7.9858 52.4361 8.7358C52.4361 9.46591 52.3182 10.0824 52.0824 10.5852C51.8494 11.0852 51.5313 11.4645 51.1278 11.723C50.7273 11.9787 50.2784 12.1065 49.7812 12.1065C49.429 12.1065 49.1293 12.0483 48.8821 11.9318C48.6378 11.8153 48.4375 11.669 48.2812 11.4929C48.125 11.3139 48.0057 11.1335 47.9233 10.9517H47.8679V14.4545H46.0526ZM47.8295 8.72727C47.8295 9.11648 47.8835 9.45597 47.9915 9.74574C48.0994 10.0355 48.2557 10.2614 48.4602 10.4233C48.6648 10.5824 48.9134 10.6619 49.206 10.6619C49.5014 10.6619 49.7514 10.581 49.956 10.419C50.1605 10.2543 50.3153 10.027 50.4205 9.73722C50.5284 9.4446 50.5824 9.10795 50.5824 8.72727C50.5824 8.34943 50.5298 8.01705 50.4247 7.73011C50.3196 7.44318 50.1648 7.21875 49.9602 7.05682C49.7557 6.89489 49.5043 6.81392 49.206 6.81392C48.9105 6.81392 48.6605 6.89205 48.456 7.0483C48.2543 7.20455 48.0994 7.42614 47.9915 7.71307C47.8835 8 47.8295 8.33807 47.8295 8.72727Z" fill="#233CEC"/>
</svg>
